<svg xmlns="http://www.w3.org/2000/svg" viewBox="0 0 576 512" width="31.88" height="32" role="img" aria-hidden="true">
  <path fill="#FF0000" d="M549.655 124.083c-6.281-23.597-24.778-42.156-48.461-48.58C458.677 64 288 64 288 64S117.323 64 74.806 75.503c-23.683 6.424-42.18 24.983-48.461 48.58C16 171.96 16 256 16 256s0 84.04 10.345 131.917c6.281 23.597 24.778 42.156 48.461 48.58C117.323 448 288 448 288 448s170.677 0 213.194-11.503c23.683-6.424 42.18-24.983 48.461-48.58C560 340.04 560 256 560 256s0-84.04-10.345-131.917zM232 336V176l142.745 80L232 336z"/>
</svg>
